<svg width="177" height="35" viewBox="0 0 177 35" fill="none" xmlns="http://www.w3.org/2000/svg">
<path d="M0.361328 3.10449C1.18034 3.20085 1.86686 3.27311 2.4209 3.32129C2.99902 3.34538 3.46875 3.38151 3.83008 3.42969C4.26367 3.47786 4.60091 3.50195 4.8418 3.50195C5.10677 3.52604 5.50423 3.514 6.03418 3.46582C6.49186 3.41764 7.10612 3.35742 7.87695 3.28516C8.67188 3.21289 9.68359 3.10449 10.9121 2.95996C10.3581 3.44173 9.91243 3.91146 9.5752 4.36914C9.26204 4.80273 9.02116 5.18815 8.85254 5.52539C8.63574 5.9349 8.50326 6.32031 8.45508 6.68164C8.35872 7.25977 8.27441 8.05469 8.20215 9.06641C8.15397 10.054 8.10579 11.138 8.05762 12.3184C8.00944 13.4987 7.98535 14.7152 7.98535 15.9678C7.98535 17.2204 7.9974 18.4128 8.02148 19.5449C8.06966 20.653 8.14193 21.6406 8.23828 22.5078C8.35872 23.375 8.50326 24.0013 8.67188 24.3867C8.91276 24.8203 9.16569 25.2539 9.43066 25.6875C9.67155 26.0488 9.96061 26.4222 10.2979 26.8076C10.6351 27.193 11.0205 27.5062 11.4541 27.7471C10.0329 27.6748 8.90072 27.6387 8.05762 27.6387H6.75684C6.37142 27.6387 5.8776 27.6628 5.27539 27.7109C4.76953 27.7591 4.13118 27.8073 3.36035 27.8555C2.58952 27.9036 1.66211 27.9759 0.578125 28.0723C1.13216 27.4701 1.56576 26.8919 1.87891 26.3379C2.19206 25.7839 2.44499 25.3021 2.6377 24.8926C2.85449 24.4108 2.99902 23.9531 3.07129 23.5195C3.16764 22.8932 3.23991 22.1224 3.28809 21.207C3.36035 20.2676 3.40853 19.2679 3.43262 18.208C3.45671 17.124 3.45671 16.028 3.43262 14.9199C3.43262 13.7878 3.40853 12.7038 3.36035 11.668C3.31217 10.6322 3.23991 9.69271 3.14355 8.84961C3.07129 8.00651 2.97493 7.33203 2.85449 6.82617C2.78223 6.51302 2.6377 6.16374 2.4209 5.77832C2.22819 5.44108 1.96322 5.05566 1.62598 4.62207C1.31283 4.16439 0.891276 3.65853 0.361328 3.10449ZM11.8154 10.6924C12.2731 10.7165 12.6826 10.7285 13.0439 10.7285C13.4294 10.7044 13.7546 10.6803 14.0195 10.6562C14.3327 10.6322 14.6097 10.6081 14.8506 10.584C15.2119 10.5358 15.5853 10.4756 15.9707 10.4033C16.3079 10.3551 16.6572 10.2949 17.0186 10.2227C17.404 10.1263 17.7773 10.0179 18.1387 9.89746C17.9941 10.2588 17.8737 10.5719 17.7773 10.8369C17.681 11.1019 17.6087 11.3307 17.5605 11.5234C17.4883 11.7402 17.4521 11.9209 17.4521 12.0654C17.4281 12.234 17.416 12.4388 17.416 12.6797C17.3919 13.0892 17.3919 13.7516 17.416 14.667C18.6686 13.583 19.7165 12.7399 20.5596 12.1377C21.4268 11.5355 22.1133 11.0658 22.6191 10.7285C23.2214 10.3431 23.6911 10.0902 24.0283 9.96973C24.9196 9.8252 25.7025 10.0299 26.377 10.584C26.666 10.8249 26.943 11.1501 27.208 11.5596C27.473 11.945 27.7018 12.4629 27.8945 13.1133C28.0872 13.7637 28.2318 14.5465 28.3281 15.4619C28.4245 16.3532 28.4365 17.4251 28.3643 18.6777C27.8584 18.7259 27.4007 18.7741 26.9912 18.8223C26.6058 18.8704 26.2806 18.9066 26.0156 18.9307C25.7025 18.9788 25.4134 19.0029 25.1484 19.0029L24.1729 19.1113C23.8356 19.1595 23.4141 19.2077 22.9082 19.2559C22.4264 19.2799 21.8363 19.3281 21.1377 19.4004C22.1494 18.5814 22.7998 17.8708 23.0889 17.2686C23.402 16.6423 23.5345 16.1243 23.4863 15.7148C23.4382 15.2572 23.2214 14.8597 22.8359 14.5225C22.3783 14.2575 21.8844 14.1611 21.3545 14.2334C20.8968 14.2816 20.3669 14.4863 19.7646 14.8477C19.1624 15.209 18.5241 15.8835 17.8496 16.8711C17.8978 18.4128 17.946 19.6895 17.9941 20.7012C18.0664 21.7129 18.1266 22.5319 18.1748 23.1582C18.2471 23.8809 18.3073 24.4469 18.3555 24.8564C18.4277 25.2178 18.5723 25.6032 18.7891 26.0127C18.9577 26.3499 19.1986 26.7233 19.5117 27.1328C19.8249 27.5423 20.2344 27.9518 20.7402 28.3613C19.6803 28.3132 18.8132 28.3132 18.1387 28.3613C17.7292 28.3854 17.3678 28.4095 17.0547 28.4336C16.7174 28.4818 16.3561 28.5299 15.9707 28.5781C15.6335 28.6263 15.236 28.6745 14.7783 28.7227C14.3447 28.7949 13.863 28.8672 13.333 28.9395C13.5257 28.6745 13.6823 28.3613 13.8027 28C13.9232 27.6628 14.0195 27.3376 14.0918 27.0244C14.1882 26.6631 14.2604 26.2897 14.3086 25.9043C14.3327 25.5671 14.3447 25.0612 14.3447 24.3867C14.3688 23.7122 14.3568 22.9535 14.3086 22.1104C14.2845 21.2432 14.2484 20.3519 14.2002 19.4365C14.152 18.4971 14.0918 17.6178 14.0195 16.7988C13.9473 15.9798 13.863 15.2692 13.7666 14.667C13.6943 14.0407 13.61 13.6071 13.5137 13.3662C13.3932 13.0771 13.2487 12.7881 13.0801 12.499C12.9355 12.234 12.7549 11.957 12.5381 11.668C12.3213 11.3548 12.0804 11.0296 11.8154 10.6924ZM29.5205 10.6924C29.9782 10.7165 30.3877 10.7285 30.749 10.7285C31.1344 10.7044 31.4596 10.6803 31.7246 10.6562C32.0378 10.6322 32.3148 10.6081 32.5557 10.584C32.917 10.5358 33.2904 10.4756 33.6758 10.4033C34.013 10.3551 34.3623 10.2949 34.7236 10.2227C35.109 10.1263 35.4824 10.0179 35.8438 9.89746C35.6992 10.2588 35.5788 10.5719 35.4824 10.8369C35.3861 11.1019 35.3138 11.3307 35.2656 11.5234C35.1934 11.7402 35.1572 11.9209 35.1572 12.0654C35.1331 12.234 35.1211 12.4388 35.1211 12.6797C35.097 13.0892 35.097 13.7516 35.1211 14.667C36.3737 13.583 37.4215 12.7399 38.2646 12.1377C39.1318 11.5355 39.8184 11.0658 40.3242 10.7285C40.9264 10.3431 41.3962 10.0902 41.7334 9.96973C42.6247 9.8252 43.4076 10.0299 44.082 10.584C44.3711 10.8249 44.6481 11.1501 44.9131 11.5596C45.1781 11.945 45.4069 12.4629 45.5996 13.1133C45.7923 13.7637 45.9368 14.5465 46.0332 15.4619C46.1296 16.3532 46.1416 17.4251 46.0693 18.6777C45.5635 18.7259 45.1058 18.7741 44.6963 18.8223C44.3109 18.8704 43.9857 18.9066 43.7207 18.9307C43.4076 18.9788 43.1185 19.0029 42.8535 19.0029L41.8779 19.1113C41.5407 19.1595 41.1191 19.2077 40.6133 19.2559C40.1315 19.2799 39.5413 19.3281 38.8428 19.4004C39.8545 18.5814 40.5049 17.8708 40.7939 17.2686C41.1071 16.6423 41.2396 16.1243 41.1914 15.7148C41.1432 15.2572 40.9264 14.8597 40.541 14.5225C40.0833 14.2575 39.5895 14.1611 39.0596 14.2334C38.6019 14.2816 38.0719 14.4863 37.4697 14.8477C36.8675 15.209 36.2292 15.8835 35.5547 16.8711C35.6029 18.4128 35.651 19.6895 35.6992 20.7012C35.7715 21.7129 35.8317 22.5319 35.8799 23.1582C35.9521 23.8809 36.0124 24.4469 36.0605 24.8564C36.1328 25.2178 36.2773 25.6032 36.4941 26.0127C36.6628 26.3499 36.9036 26.7233 37.2168 27.1328C37.5299 27.5423 37.9395 27.9518 38.4453 28.3613C37.3854 28.3132 36.5182 28.3132 35.8438 28.3613C35.4342 28.3854 35.0729 28.4095 34.7598 28.4336C34.4225 28.4818 34.0612 28.5299 33.6758 28.5781C33.3385 28.6263 32.9411 28.6745 32.4834 28.7227C32.0498 28.7949 31.568 28.8672 31.0381 28.9395C31.2308 28.6745 31.3874 28.3613 31.5078 28C31.6283 27.6628 31.7246 27.3376 31.7969 27.0244C31.8932 26.6631 31.9655 26.2897 32.0137 25.9043C32.0378 25.5671 32.0498 25.0612 32.0498 24.3867C32.0739 23.7122 32.0618 22.9535 32.0137 22.1104C31.9896 21.2432 31.9535 20.3519 31.9053 19.4365C31.8571 18.4971 31.7969 17.6178 31.7246 16.7988C31.6523 15.9798 31.568 15.2692 31.4717 14.667C31.3994 14.0407 31.3151 13.6071 31.2188 13.3662C31.0983 13.0771 30.9538 12.7881 30.7852 12.499C30.6406 12.234 30.46 11.957 30.2432 11.668C30.0264 11.3548 29.7855 11.0296 29.5205 10.6924ZM47.5869 11.8486L54.2354 11.9209C53.8499 13.3903 53.5609 14.6429 53.3682 15.6787C53.1995 16.7145 53.0911 17.5817 53.043 18.2803C52.9466 19.0752 52.9225 19.7497 52.9707 20.3037C53.043 20.8096 53.1634 21.3516 53.332 21.9297C53.4766 22.4115 53.6934 22.9655 53.9824 23.5918C54.2715 24.2181 54.6569 24.8444 55.1387 25.4707C54.8496 25.3743 54.5365 25.3021 54.1992 25.2539C53.862 25.2057 53.5488 25.1696 53.2598 25.1455C52.9225 25.1214 52.5853 25.1214 52.248 25.1455C51.9108 25.1696 51.5374 25.2057 51.1279 25.2539C50.7907 25.3021 50.3812 25.3623 49.8994 25.4346C49.4176 25.5068 48.9118 25.6032 48.3818 25.7236C48.7432 24.6396 49.0202 23.7002 49.2129 22.9053C49.4297 22.1104 49.5863 21.4479 49.6826 20.918C49.779 20.2917 49.8392 19.7858 49.8633 19.4004C49.8633 18.9186 49.8633 18.3766 49.8633 17.7744C49.8633 17.1481 49.8633 16.5459 49.8633 15.9678C49.8633 15.3896 49.8512 14.8838 49.8271 14.4502C49.8031 13.9925 49.7549 13.7035 49.6826 13.583L49.3213 13.2217C49.1768 13.1012 48.96 12.9326 48.6709 12.7158C48.4059 12.4749 48.0446 12.1859 47.5869 11.8486ZM50.1523 6.28418C50.6582 6.01921 51.1641 5.94694 51.6699 6.06738C52.1999 6.18783 52.6094 6.41667 52.8984 6.75391C53.1875 7.09115 53.2839 7.48861 53.1875 7.94629C53.1152 8.40397 52.7298 8.84961 52.0312 9.2832C51.3327 9.69271 50.7184 9.83724 50.1885 9.7168C49.6585 9.59635 49.2852 9.34342 49.0684 8.95801C48.8516 8.57259 48.8154 8.12695 48.96 7.62109C49.1045 7.09115 49.502 6.64551 50.1523 6.28418ZM73.4941 12.6797C73.4219 12.1979 73.3617 11.8005 73.3135 11.4873C73.2653 11.1501 73.2171 10.8851 73.1689 10.6924C73.1208 10.4515 73.0846 10.2708 73.0605 10.1504C73.0124 10.0299 72.9521 9.89746 72.8799 9.75293C72.8317 9.63249 72.7474 9.48796 72.627 9.31934C72.5306 9.15072 72.4102 8.95801 72.2656 8.74121C72.5788 8.83757 72.8919 8.89779 73.2051 8.92188C73.5423 8.94596 73.8555 8.97005 74.1445 8.99414C74.4577 9.01823 74.7829 9.01823 75.1201 8.99414C75.4574 8.99414 75.8428 8.9821 76.2764 8.95801C76.6618 8.93392 77.1195 8.92188 77.6494 8.92188C78.2035 8.89779 78.8298 8.86165 79.5283 8.81348C79.1188 8.90983 78.7695 9.07845 78.4805 9.31934C78.2155 9.53613 77.9867 9.77702 77.7939 10.042C77.5771 10.3311 77.3965 10.6442 77.252 10.9814C77.1315 11.2946 77.0592 11.8968 77.0352 12.7881C77.0111 13.6553 77.0111 14.6911 77.0352 15.8955C77.0592 17.0758 77.0833 18.3525 77.1074 19.7256C77.1556 21.0986 77.1797 22.4115 77.1797 23.6641C77.2038 24.9167 77.2038 26.0609 77.1797 27.0967C77.1556 28.1084 77.0954 28.8551 76.999 29.3369C76.6618 30.8545 76.0355 32.083 75.1201 33.0225C74.2048 33.986 73.0003 34.5039 71.5068 34.5762C69.7002 34.6484 68.2669 34.4798 67.207 34.0703C66.1712 33.6608 65.3643 33.1549 64.7861 32.5527C64.208 31.9746 63.7744 31.3844 63.4854 30.7822C63.1963 30.18 62.8952 29.7223 62.582 29.4092C62.293 29.1442 62.0039 28.8913 61.7148 28.6504C61.4499 28.4577 61.1729 28.265 60.8838 28.0723C60.6188 27.8796 60.3538 27.7591 60.0889 27.7109C60.7874 27.735 61.4137 27.7471 61.9678 27.7471C62.5218 27.7471 62.9915 27.7471 63.377 27.7471C63.8105 27.7471 64.196 27.735 64.5332 27.7109H65.6895H68.9775C68.4958 27.8555 68.1344 28.012 67.8936 28.1807C67.6527 28.3734 67.484 28.5661 67.3877 28.7588C67.2913 28.9756 67.2432 29.1924 67.2432 29.4092C67.3395 29.9873 67.6527 30.4089 68.1826 30.6738C68.7126 30.9388 69.4352 31.0954 70.3506 31.1436C71.2419 31.1917 71.8561 31.1676 72.1934 31.0713C72.5306 30.999 72.7956 30.8545 72.9883 30.6377C73.3737 30.0596 73.6989 29.3128 73.9639 28.3975C74.1566 27.6266 74.2891 26.627 74.3613 25.3984C74.4577 24.1458 74.3493 22.6162 74.0361 20.8096C73.2653 21.8695 72.374 22.6644 71.3623 23.1943C70.3506 23.7243 69.387 24.1097 68.4717 24.3506C67.3877 24.6156 66.2917 24.748 65.1836 24.748C62.2689 24.6276 60.0889 23.9531 58.6436 22.7246C57.1982 21.4961 56.5358 19.846 56.6562 17.7744C56.7285 16.7386 57.0417 15.7028 57.5957 14.667C58.1738 13.6312 58.9206 12.7038 59.8359 11.8848C60.7754 11.0658 61.8473 10.4154 63.0518 9.93359C64.2562 9.45182 65.5088 9.24707 66.8096 9.31934C67.7972 9.41569 68.7246 9.59635 69.5918 9.86133C70.3385 10.1022 71.0732 10.4395 71.7959 10.873C72.5426 11.3066 73.1087 11.9089 73.4941 12.6797ZM62.0039 16.293C61.8594 17.2324 61.9196 18.1117 62.1846 18.9307C62.4736 19.7497 62.8711 20.4603 63.377 21.0625C63.8828 21.6406 64.4489 22.0983 65.0752 22.4355C65.7015 22.7487 66.2917 22.8932 66.8457 22.8691C68.002 22.8451 69.0016 22.3271 69.8447 21.3154C70.6878 20.2796 71.1937 18.738 71.3623 16.6904C71.4346 15.6787 71.3021 14.8115 70.9648 14.0889C70.6517 13.3421 70.2542 12.7399 69.7725 12.2822C69.2907 11.8245 68.7848 11.4993 68.2549 11.3066C67.7249 11.1139 67.3034 11.0296 66.9902 11.0537C66.5566 11.1019 66.0749 11.2344 65.5449 11.4512C65.0391 11.6439 64.5452 11.945 64.0635 12.3545C63.5817 12.7399 63.1481 13.2578 62.7627 13.9082C62.4014 14.5586 62.1484 15.3535 62.0039 16.293ZM82.5635 13.3662C82.6839 13.2217 82.7562 12.9567 82.7803 12.5713C82.8285 12.1618 82.9248 11.7041 83.0693 11.1982C83.238 10.6924 83.515 10.1624 83.9004 9.6084C84.2858 9.05436 84.9121 8.53646 85.7793 8.05469C86.6224 7.57292 87.4414 7.28385 88.2363 7.1875C89.0312 7.09115 89.79 7.12728 90.5127 7.2959C91.2354 7.46452 91.9098 7.72949 92.5361 8.09082C93.1865 8.45215 93.7767 8.84961 94.3066 9.2832C94.668 9.57227 94.957 9.99382 95.1738 10.5479C95.3906 11.0778 95.5592 11.68 95.6797 12.3545C95.8001 13.029 95.8844 13.7396 95.9326 14.4863C96.0049 15.209 96.0531 15.9196 96.0771 16.6182C96.1012 17.2926 96.1133 17.9189 96.1133 18.4971C96.1374 19.0511 96.1855 19.5088 96.2578 19.8701C96.3542 20.4001 96.5228 20.8577 96.7637 21.2432C97.0046 21.6045 97.2695 21.9176 97.5586 22.1826C97.8477 22.4235 98.1367 22.6162 98.4258 22.7607C98.7148 22.9053 98.9678 23.0137 99.1846 23.0859C99.3291 23.1582 99.4616 23.2064 99.582 23.2305C99.8229 23.3268 99.9915 23.3268 100.088 23.2305C99.9434 23.5677 99.8109 23.8568 99.6904 24.0977C99.57 24.3385 99.4736 24.5433 99.4014 24.7119C99.305 24.9046 99.2207 25.0612 99.1484 25.1816C99.0762 25.3262 98.9919 25.4587 98.8955 25.5791C98.8232 25.6995 98.7269 25.832 98.6064 25.9766C98.486 26.1211 98.3656 26.2777 98.2451 26.4463C97.932 26.3258 97.6309 26.1813 97.3418 26.0127C97.0768 25.8441 96.8359 25.6875 96.6191 25.543C96.3542 25.3743 96.1133 25.2057 95.8965 25.0371C95.6797 24.8685 95.4749 24.6758 95.2822 24.459C95.1136 24.2663 94.9329 24.0615 94.7402 23.8447C94.5716 23.6279 94.4271 23.387 94.3066 23.1221C94.1621 23.4352 93.8128 23.8809 93.2588 24.459C92.7288 25.0371 92.0303 25.5671 91.1631 26.0488C90.2959 26.5065 89.2842 26.8317 88.1279 27.0244C86.9958 27.2171 85.7432 27.0846 84.3701 26.627C83.7679 26.4342 83.2018 26.1572 82.6719 25.7959C82.1419 25.4105 81.6842 24.9528 81.2988 24.4229C80.9375 23.8929 80.6725 23.2907 80.5039 22.6162C80.3594 21.9176 80.3714 21.1468 80.54 20.3037C80.7087 19.4606 81.0098 18.75 81.4434 18.1719C81.877 17.5938 82.3949 17.124 82.9971 16.7627C83.5993 16.4014 84.2738 16.1243 85.0205 15.9316C85.7673 15.7389 86.5381 15.6064 87.333 15.5342C87.9593 15.5101 88.5856 15.5462 89.2119 15.6426C89.7419 15.7389 90.2959 15.9196 90.874 16.1846C91.4521 16.4255 91.946 16.7988 92.3555 17.3047C92.3314 16.028 92.2832 15.0163 92.2109 14.2695C92.1628 13.4987 92.1146 12.9085 92.0664 12.499C91.9701 12.0173 91.8857 11.68 91.8135 11.4873C91.693 11.3187 91.5605 11.126 91.416 10.9092C91.2956 10.6924 91.139 10.4997 90.9463 10.3311C90.7536 10.1383 90.5127 9.98177 90.2236 9.86133C89.9346 9.74089 89.5973 9.69271 89.2119 9.7168C88.8024 9.74089 88.4772 9.84928 88.2363 10.042C87.9954 10.2347 87.8027 10.4635 87.6582 10.7285C87.5378 10.9694 87.4655 11.2344 87.4414 11.5234C87.4173 11.8125 87.4294 12.0654 87.4775 12.2822C87.5257 12.4268 87.598 12.5833 87.6943 12.752C87.7907 12.8965 87.9232 13.0531 88.0918 13.2217C88.2604 13.3903 88.4893 13.5348 88.7783 13.6553C88.2243 13.7275 87.7305 13.7878 87.2969 13.8359C86.8633 13.86 86.4899 13.8962 86.1768 13.9443C85.8154 13.9925 85.5023 14.0286 85.2373 14.0527C84.9723 14.0768 84.6592 14.125 84.2979 14.1973C83.9847 14.2454 83.5993 14.3057 83.1416 14.3779C82.6839 14.4502 82.154 14.5465 81.5518 14.667C81.6963 14.4984 81.8288 14.3418 81.9492 14.1973C82.0697 14.0286 82.1781 13.8841 82.2744 13.7637C82.3708 13.6191 82.4671 13.4867 82.5635 13.3662ZM87.9834 17.666C87.5498 17.6901 87.1162 17.7985 86.6826 17.9912C86.249 18.1598 85.8636 18.4128 85.5264 18.75C85.1891 19.0632 84.9001 19.4365 84.6592 19.8701C84.4424 20.2796 84.334 20.7373 84.334 21.2432C84.334 21.749 84.4544 22.1947 84.6953 22.5801C84.9603 22.9414 85.2975 23.2425 85.707 23.4834C86.1406 23.7243 86.5983 23.8688 87.0801 23.917C87.5859 23.9652 88.0798 23.917 88.5615 23.7725C89.0192 23.6038 89.4528 23.3389 89.8623 22.9775C90.2718 22.5921 90.6211 22.1826 90.9102 21.749C91.1992 21.2913 91.404 20.8457 91.5244 20.4121C91.6449 19.9544 91.6569 19.5811 91.5605 19.292C91.3678 18.6657 90.9342 18.2321 90.2598 17.9912C89.5853 17.7262 88.8265 17.6178 87.9834 17.666ZM98.4619 1.62305C100.076 1.81576 101.473 1.96029 102.653 2.05664C103.834 2.12891 104.809 2.18913 105.58 2.2373C106.471 2.28548 107.218 2.29753 107.82 2.27344C108.447 2.24935 109.302 2.18913 110.386 2.09277C111.301 2.02051 112.506 1.92415 113.999 1.80371C115.493 1.65918 117.359 1.46647 119.6 1.22559C119.624 1.77962 119.636 2.32161 119.636 2.85156C119.66 3.35742 119.684 3.80306 119.708 4.18848C119.732 4.64616 119.744 5.06771 119.744 5.45312C119.744 5.86263 119.72 6.38053 119.672 7.00684C119.624 7.53678 119.539 8.21126 119.419 9.03027C119.323 9.8252 119.166 10.7767 118.949 11.8848C118.612 10.584 118.287 9.53613 117.974 8.74121C117.66 7.9222 117.371 7.27181 117.106 6.79004C116.817 6.236 116.528 5.81445 116.239 5.52539C115.926 5.30859 115.553 5.12793 115.119 4.9834C114.734 4.86296 114.24 4.7666 113.638 4.69434C113.06 4.62207 112.373 4.63411 111.578 4.73047C111.458 7.91016 111.373 10.4876 111.325 12.4629C111.277 14.4382 111.241 15.9798 111.217 17.0879C111.193 18.4128 111.181 19.3643 111.181 19.9424C111.205 20.7614 111.337 21.5684 111.578 22.3633C111.771 23.0378 112.084 23.7363 112.518 24.459C112.951 25.1816 113.577 25.82 114.396 26.374H109.988C109.579 26.374 109.073 26.3981 108.471 26.4463C107.965 26.4945 107.314 26.5426 106.52 26.5908C105.749 26.639 104.845 26.7233 103.81 26.8438C104.171 26.2174 104.46 25.6514 104.677 25.1455C104.894 24.6396 105.062 24.2061 105.183 23.8447C105.327 23.4111 105.436 23.0257 105.508 22.6885C105.532 22.2067 105.592 21.2311 105.688 19.7617C105.713 19.1595 105.737 18.4128 105.761 17.5215C105.809 16.6302 105.857 15.5703 105.905 14.3418C105.978 13.1133 106.038 11.7041 106.086 10.1143C106.158 8.50033 106.23 6.68164 106.303 4.6582C105.869 4.53776 105.46 4.5498 105.074 4.69434C104.689 4.81478 104.352 4.97135 104.062 5.16406C103.725 5.40495 103.4 5.69401 103.087 6.03125C102.774 6.44076 102.424 6.9707 102.039 7.62109C101.702 8.17513 101.316 8.90983 100.883 9.8252C100.449 10.7165 99.9554 11.8245 99.4014 13.1494C99.2809 11.7523 99.1966 10.6081 99.1484 9.7168C99.1003 8.80143 99.0641 8.09082 99.04 7.58496C99.016 6.98275 99.0039 6.53711 99.0039 6.24805C99.0039 5.98307 98.9798 5.63379 98.9316 5.2002C98.8835 4.83887 98.8232 4.36914 98.751 3.79102C98.6787 3.1888 98.5824 2.46615 98.4619 1.62305ZM127.115 22.1826C127.79 22.1826 128.416 22.1104 128.994 21.9658C129.476 21.8454 129.934 21.6527 130.367 21.3877C130.825 21.0986 131.126 20.6771 131.271 20.123C131.752 20.2194 132.162 20.3037 132.499 20.376C132.836 20.4242 133.125 20.4723 133.366 20.5205C133.631 20.5928 133.86 20.641 134.053 20.665C134.245 20.7132 134.474 20.7614 134.739 20.8096C134.98 20.8577 135.269 20.918 135.606 20.9902C135.968 21.0384 136.389 21.1107 136.871 21.207C136.51 21.1589 136.136 21.195 135.751 21.3154C135.39 21.4359 135.04 21.5684 134.703 21.7129C134.318 21.8815 133.956 22.0863 133.619 22.3271C133.402 22.4717 133.149 22.6885 132.86 22.9775C132.595 23.2666 132.21 23.5436 131.704 23.8086C131.198 24.0736 130.524 24.3024 129.681 24.4951C128.862 24.6637 127.802 24.724 126.501 24.6758C124.935 24.6276 123.622 24.3506 122.562 23.8447C121.503 23.3148 120.647 22.6764 119.997 21.9297C119.347 21.1589 118.877 20.3278 118.588 19.4365C118.299 18.5452 118.142 17.7142 118.118 16.9434C118.094 16.1725 118.323 15.3656 118.805 14.5225C119.286 13.6794 119.961 12.9085 120.828 12.21C121.719 11.5114 122.791 10.9453 124.044 10.5117C125.297 10.054 126.67 9.8252 128.163 9.8252C129.03 9.8252 129.825 9.93359 130.548 10.1504C131.295 10.3431 131.969 10.6081 132.571 10.9453C133.198 11.2826 133.74 11.668 134.197 12.1016C134.655 12.5111 135.04 12.9326 135.354 13.3662C135.667 13.8239 135.932 14.3057 136.148 14.8115C136.341 15.2451 136.498 15.7389 136.618 16.293C136.739 16.847 136.775 17.4131 136.727 17.9912C134.896 18.0394 133.414 18.0755 132.282 18.0996C131.174 18.1237 130.307 18.1357 129.681 18.1357H128.055H126.826C126.393 18.1357 125.826 18.1478 125.128 18.1719C124.429 18.196 123.574 18.2321 122.562 18.2803C122.683 19.2438 122.984 19.9906 123.466 20.5205C123.972 21.0264 124.502 21.4118 125.056 21.6768C125.682 21.9658 126.368 22.1344 127.115 22.1826ZM123.863 15.6787C124.634 15.7269 125.272 15.763 125.778 15.7871C126.308 15.8112 126.742 15.8353 127.079 15.8594C127.44 15.8835 127.729 15.8955 127.946 15.8955H128.85C129.452 15.8955 130.572 15.8594 132.21 15.7871C132.138 14.7272 131.909 13.9202 131.523 13.3662C131.162 12.8122 130.777 12.4027 130.367 12.1377C129.885 11.8486 129.355 11.68 128.777 11.6318C127.212 11.6559 126.043 11.9811 125.272 12.6074C124.526 13.2337 124.056 14.2575 123.863 15.6787ZM158.37 15.1729C158.081 15.1247 157.72 15.0885 157.286 15.0645C156.877 15.0404 156.479 15.0283 156.094 15.0283C155.66 15.0283 155.202 15.0404 154.721 15.0645C154.215 15.0885 153.709 15.1126 153.203 15.1367C152.77 15.1608 152.276 15.1969 151.722 15.2451C151.192 15.2692 150.674 15.3053 150.168 15.3535C150.361 15.2572 150.529 15.1247 150.674 14.9561C150.842 14.7874 150.987 14.6188 151.107 14.4502C151.228 14.2575 151.336 14.0527 151.433 13.8359C151.553 13.4746 151.541 13.041 151.396 12.5352C151.252 12.0052 150.987 11.5234 150.602 11.0898C150.24 10.6562 149.771 10.319 149.192 10.0781C148.638 9.81315 148.024 9.75293 147.35 9.89746C146.627 10.0661 145.977 10.319 145.398 10.6562C144.844 10.9935 144.375 11.4632 143.989 12.0654C143.628 12.6436 143.363 13.3662 143.194 14.2334C143.05 15.0765 143.014 16.0882 143.086 17.2686C143.182 18.738 143.423 19.9062 143.809 20.7734C144.194 21.6406 144.664 22.291 145.218 22.7246C145.772 23.1582 146.374 23.4232 147.024 23.5195C147.699 23.5918 148.361 23.5918 149.012 23.5195C149.469 23.4232 149.891 23.2184 150.276 22.9053C150.59 22.6403 150.879 22.2549 151.144 21.749C151.409 21.2432 151.529 20.5446 151.505 19.6533L155.913 19.4727C155.407 20.8939 154.793 22.026 154.07 22.8691C153.348 23.6882 152.649 24.3265 151.975 24.7842C151.18 25.3141 150.385 25.6755 149.59 25.8682C148.602 26.0368 147.723 26.109 146.952 26.085C146.181 26.0368 145.483 25.9163 144.856 25.7236C144.23 25.5309 143.652 25.29 143.122 25.001C142.592 24.7119 142.086 24.3988 141.604 24.0615C141.291 23.8447 140.942 23.4834 140.557 22.9775C140.171 22.4717 139.81 21.8695 139.473 21.1709C139.135 20.4482 138.858 19.6533 138.642 18.7861C138.425 17.9189 138.34 17.0277 138.389 16.1123C138.437 15.1729 138.654 14.2334 139.039 13.2939C139.424 12.3545 140.039 11.4512 140.882 10.584C142.159 9.2832 143.52 8.4401 144.965 8.05469C146.434 7.64518 147.819 7.53678 149.12 7.72949C150.421 7.89811 151.577 8.27148 152.589 8.84961C153.601 9.42773 154.311 10.054 154.721 10.7285C155.13 11.403 155.431 11.9209 155.624 12.2822C155.841 12.6195 155.997 12.8844 156.094 13.0771C156.214 13.2458 156.311 13.3783 156.383 13.4746C156.479 13.5469 156.612 13.6553 156.78 13.7998C156.901 13.9202 157.045 14.0527 157.214 14.1973C157.358 14.3177 157.527 14.4622 157.72 14.6309C157.912 14.7995 158.129 14.9801 158.37 15.1729ZM157.647 0.611328C158.201 0.707682 158.707 0.779948 159.165 0.828125C159.623 0.852214 160.008 0.876302 160.321 0.900391C160.683 0.924479 160.996 0.936523 161.261 0.936523C161.622 0.912435 162.044 0.876302 162.525 0.828125C162.935 0.779948 163.429 0.719727 164.007 0.647461C164.609 0.575195 165.296 0.478841 166.066 0.358398C165.705 0.551107 165.404 0.743815 165.163 0.936523C164.922 1.10514 164.729 1.28581 164.585 1.47852C164.416 1.69531 164.284 1.90007 164.188 2.09277C164.067 2.40592 163.935 3.05632 163.79 4.04395C163.646 4.88704 163.465 6.13965 163.248 7.80176C163.055 9.46387 162.802 11.7161 162.489 14.5586C163.356 13.6914 164.175 13.041 164.946 12.6074C165.741 12.1497 166.44 11.8245 167.042 11.6318C167.741 11.415 168.391 11.3066 168.993 11.3066C169.74 11.3789 170.499 11.6198 171.27 12.0293C172.064 12.4147 172.799 12.8724 173.474 13.4023C174.172 13.9323 174.774 14.4984 175.28 15.1006C175.81 15.7028 176.184 16.2327 176.4 16.6904C176.545 17.0036 176.617 17.4131 176.617 17.9189C176.617 18.4007 176.569 18.9307 176.473 19.5088C176.376 20.0869 176.244 20.6771 176.075 21.2793C175.907 21.8815 175.738 22.4476 175.569 22.9775C175.425 23.5075 175.292 23.9772 175.172 24.3867C175.051 24.7721 174.979 25.0492 174.955 25.2178C174.907 25.5791 174.931 25.9284 175.027 26.2656C175.1 26.5547 175.244 26.8678 175.461 27.2051C175.678 27.5182 176.003 27.7832 176.437 28C176.099 27.9518 175.738 27.9157 175.353 27.8916C174.991 27.8434 174.642 27.8073 174.305 27.7832C173.919 27.7591 173.534 27.7471 173.148 27.7471H171.848C171.438 27.7471 170.968 27.7591 170.438 27.7832C169.909 27.7832 169.33 27.7952 168.704 27.8193C169.041 27.6989 169.33 27.5423 169.571 27.3496C169.812 27.1328 170.017 26.9281 170.186 26.7354C170.378 26.5186 170.547 26.2897 170.691 26.0488C170.788 25.8561 170.908 25.4948 171.053 24.9648C171.197 24.4108 171.33 23.7845 171.45 23.0859C171.571 22.3633 171.655 21.6045 171.703 20.8096C171.775 20.0146 171.787 19.2559 171.739 18.5332C171.715 17.7865 171.607 17.124 171.414 16.5459C171.245 15.9678 170.98 15.5462 170.619 15.2812C169.535 14.4622 168.548 14.0648 167.656 14.0889C166.789 14.0889 165.958 14.4382 165.163 15.1367C164.874 15.4017 164.597 15.6667 164.332 15.9316C164.091 16.1725 163.826 16.4616 163.537 16.7988C163.248 17.112 162.983 17.4372 162.742 17.7744C162.742 18.1357 162.754 18.5332 162.778 18.9668C162.802 19.4004 162.826 19.8219 162.851 20.2314C162.875 20.6891 162.911 21.1468 162.959 21.6045C163.007 22.3031 163.079 22.9896 163.176 23.6641C163.248 24.2422 163.344 24.8805 163.465 25.5791C163.585 26.2536 163.742 26.8678 163.935 27.4219C163.621 27.3737 163.296 27.3617 162.959 27.3857C162.622 27.3857 162.297 27.3857 161.983 27.3857C161.622 27.4098 161.273 27.4219 160.936 27.4219C160.622 27.446 160.297 27.4821 159.96 27.5303C159.671 27.5785 159.358 27.6266 159.021 27.6748C158.683 27.6989 158.358 27.7471 158.045 27.8193C158.334 27.2653 158.575 26.7233 158.768 26.1934C158.96 25.6393 159.117 25.1576 159.237 24.748C159.382 24.2663 159.502 23.7965 159.599 23.3389C159.671 22.9775 159.719 22.291 159.743 21.2793C159.791 20.2435 159.827 19.0632 159.852 17.7383C159.876 16.3893 159.888 14.9681 159.888 13.4746C159.888 11.9811 159.876 10.5599 159.852 9.21094C159.827 7.86198 159.779 6.68164 159.707 5.66992C159.659 4.6582 159.599 3.95964 159.526 3.57422C159.43 3.1888 159.298 2.80339 159.129 2.41797C158.984 2.08073 158.792 1.75553 158.551 1.44238C158.31 1.10514 158.009 0.828125 157.647 0.611328Z" fill="#9CBB57"/>
</svg>
