<svg width="36" height="32" viewBox="0 0 36 32" fill="none" xmlns="http://www.w3.org/2000/svg">
<path d="M35.0182 21.5507C35.2786 21.5507 35.5283 21.4475 35.7124 21.2638C35.8966 21.0801 36 20.831 36 20.5712C36 20.3114 35.8966 20.0622 35.7124 19.8785C35.5283 19.6948 35.2786 19.5916 35.0182 19.5916C31.3546 19.5888 27.7102 20.1196 24.2002 21.1671C22.9797 20.3805 21.7197 19.6569 20.4251 18.9989C25.0838 17.222 30.0306 16.316 35.0182 16.3263C35.2786 16.3263 35.5283 16.2231 35.7124 16.0394C35.8966 15.8557 36 15.6065 36 15.3467C36 15.0869 35.8966 14.8378 35.7124 14.6541C35.5283 14.4704 35.2786 14.3672 35.0182 14.3672C34.0364 14.3672 33.0545 14.4031 32.0727 14.4684V8.81621C32.0727 8.66413 32.0372 8.51415 31.9691 8.37813C31.9009 8.24211 31.8019 8.12379 31.68 8.03255L21.2073 0.195916C21.0373 0.0687449 20.8306 0 20.6182 0C20.4057 0 20.199 0.0687449 20.0291 0.195916L9.55636 8.03255C9.43443 8.12379 9.33545 8.24211 9.26729 8.37813C9.19912 8.51415 9.16364 8.66413 9.16364 8.81621V15.1459C6.46733 14.6278 3.72769 14.367 0.981818 14.3672C0.721424 14.3672 0.471694 14.4704 0.287568 14.6541C0.103441 14.8378 0 15.0869 0 15.3467C0 15.6065 0.103441 15.8557 0.287568 16.0394C0.471694 16.2231 0.721424 16.3263 0.981818 16.3263C7.11666 16.3142 13.1751 17.6843 18.705 20.3346C24.235 22.9848 29.0937 26.8468 32.9187 31.6322C33.0108 31.747 33.1276 31.8396 33.2605 31.9032C33.3933 31.9668 33.5388 31.9997 33.6862 31.9996C33.871 31.9992 34.0519 31.9467 34.2081 31.8483C34.3644 31.7499 34.4896 31.6094 34.5694 31.4432C34.6492 31.2769 34.6804 31.0915 34.6594 30.9084C34.6383 30.7252 34.5659 30.5517 34.4504 30.4078C33.4922 29.2151 32.4713 28.0739 31.392 26.989C32.5955 26.8477 33.8063 26.7762 35.0182 26.7752C35.2786 26.7752 35.5283 26.672 35.7124 26.4882C35.8966 26.3045 36 26.0554 36 25.7956C36 25.5358 35.8966 25.2866 35.7124 25.1029C35.5283 24.9192 35.2786 24.816 35.0182 24.816C33.1971 24.816 31.3793 24.9683 29.5838 25.2715C28.5333 24.33 27.4424 23.4457 26.3111 22.6185C29.1586 21.9076 32.0829 21.549 35.0182 21.5507ZM17.6727 17.7238V12.408H23.5636V15.9116C21.6696 16.4354 19.8144 17.0901 18.0115 17.8708L17.6727 17.7238ZM11.1273 9.306L20.6182 2.20405L30.1091 9.306V14.6463C28.5689 14.8206 27.0394 15.0784 25.5273 15.4186V11.4284C25.5273 11.1686 25.4238 10.9195 25.2397 10.7358C25.0556 10.552 24.8058 10.4488 24.5455 10.4488H16.6909C16.4305 10.4488 16.1808 10.552 15.9967 10.7358C15.8125 10.9195 15.7091 11.1686 15.7091 11.4284V16.9549C14.2091 16.4087 12.6794 15.9476 11.1273 15.5737V9.306ZM19.1733 31.562C19.102 31.6693 19.0102 31.7614 18.9031 31.8332C18.7961 31.9051 18.6759 31.9551 18.5495 31.9806C18.4231 32.0061 18.2928 32.0065 18.1663 31.9817C18.0397 31.9569 17.9192 31.9075 17.8118 31.8363C12.8264 28.5269 6.96986 26.7657 0.981818 26.7752C0.721424 26.7752 0.471694 26.672 0.287568 26.4882C0.103441 26.3045 0 26.0554 0 25.7956C0 25.5358 0.103441 25.2866 0.287568 25.1029C0.471694 24.9192 0.721424 24.816 0.981818 24.816C7.35641 24.8059 13.5911 26.6807 18.8984 30.2037C19.0058 30.2748 19.0982 30.3664 19.1702 30.4732C19.2422 30.58 19.2924 30.6999 19.3179 30.826C19.3434 30.9522 19.3438 31.0821 19.319 31.2084C19.2942 31.3347 19.2447 31.4548 19.1733 31.562ZM27.3224 30.3196C27.4144 30.4096 27.4878 30.5169 27.5384 30.6353C27.5889 30.7536 27.6156 30.8807 27.6169 31.0094C27.6182 31.138 27.5941 31.2656 27.5459 31.385C27.4978 31.5043 27.4265 31.613 27.3363 31.7049C27.246 31.7968 27.1385 31.87 27.0199 31.9204C26.9013 31.9708 26.7739 31.9974 26.6449 31.9987C26.516 32 26.3881 31.976 26.2685 31.9279C26.1489 31.8799 26.0399 31.8088 25.9478 31.7188C19.2916 25.1829 10.3208 21.5293 0.981818 21.5507C0.721424 21.5507 0.471694 21.4475 0.287568 21.2638C0.103441 21.0801 0 20.831 0 20.5712C0 20.3114 0.103441 20.0622 0.287568 19.8785C0.471694 19.6948 0.721424 19.5916 0.981818 19.5916C10.8367 19.5678 20.3034 23.4227 27.3273 30.3196H27.3224Z" fill="white"/>
</svg>
